# xmcd
#
# Track frame offsets: 
#        150
#        16173
#        33397
#        48643
#        66345
#        81736
#        98961
#        115622
#        130184
#
# Disc length: 2003 seconds
#
# Revision: 0
# Processed by: cddbd v1.5.2PL0 Copyright (c) Steve Scherf et al.
# Submitted via: ExactAudioCopy v0.99pb5
#
DISCID=7807d109
DTITLE=Hjortur - Basic Road
DYEAR=2009
DGENRE=Blues
TTITLE0=Amazing Day
TTITLE1=I Am Going Down
TTITLE2=Slow Down
TTITLE3=Hand It Over
TTITLE4=Let It Fly
TTITLE5=I Go to Work
TTITLE6=Shot Down
TTITLE7=He Said
TTITLE8=Sometimes
EXTD=
EXTT0=
EXTT1=
EXTT2=
EXTT3=
EXTT4=
EXTT5=
EXTT6=
EXTT7=
EXTT8=
PLAYORDER=
